<mxfile host="app.diagrams.net" modified="2024-02-22T11:34:15.429Z" agent="Mozilla/5.0 (Windows NT 10.0; Win64; x64) AppleWebKit/537.36 (KHTML, like Gecko) Chrome/121.0.0.0 Safari/537.36" etag="zRf7UFbYwmGQiVmXKQ80" version="23.1.5" type="github">
  <diagram id="R2lEEEUBdFMjLlhIrx00" name="Page-1">
    <mxGraphModel dx="1938" dy="1047" grid="1" gridSize="10" guides="1" tooltips="1" connect="1" arrows="1" fold="1" page="1" pageScale="1" pageWidth="850" pageHeight="1100" math="0" shadow="0" extFonts="Permanent Marker^https://fonts.googleapis.com/css?family=Permanent+Marker">
      <root>
        <mxCell id="0" />
        <mxCell id="1" parent="0" />
        <mxCell id="Lt4sIG0qt5cg9dwQDyGw-117" value="" style="rounded=0;whiteSpace=wrap;html=1;fillColor=#f8cecc;strokeColor=#b85450;dashed=1;container=0;" parent="1" vertex="1">
          <mxGeometry x="545.88" y="130" width="263.88" height="87.5" as="geometry" />
        </mxCell>
        <mxCell id="Lt4sIG0qt5cg9dwQDyGw-119" value="" style="rounded=0;whiteSpace=wrap;html=1;fillColor=#60a917;strokeColor=#2D7600;fontColor=#ffffff;dashed=1;" parent="1" vertex="1">
          <mxGeometry x="405.63" y="190" width="110" height="140" as="geometry" />
        </mxCell>
        <mxCell id="qraEgwC79fjRJJOxNa_y-46" value="" style="rounded=0;whiteSpace=wrap;html=1;fillColor=#60a917;strokeColor=#2D7600;fontColor=#ffffff;dashed=1;" parent="1" vertex="1">
          <mxGeometry x="406.59" y="250" width="333.41" height="90" as="geometry" />
        </mxCell>
        <mxCell id="qraEgwC79fjRJJOxNa_y-48" value="" style="group" parent="1" vertex="1" connectable="0">
          <mxGeometry x="263.14" y="350" width="148.43" height="110" as="geometry" />
        </mxCell>
        <mxCell id="Lt4sIG0qt5cg9dwQDyGw-118" value="" style="rounded=0;whiteSpace=wrap;html=1;fillColor=#dae8fc;strokeColor=#6c8ebf;dashed=1;" parent="qraEgwC79fjRJJOxNa_y-48" vertex="1">
          <mxGeometry width="148.43" height="110.00000000000001" as="geometry" />
        </mxCell>
        <mxCell id="Lt4sIG0qt5cg9dwQDyGw-2" value="Microcontroller + Bluetooth Module" style="rounded=0;whiteSpace=wrap;html=1;" parent="qraEgwC79fjRJJOxNa_y-48" vertex="1">
          <mxGeometry x="10.602142857142859" y="30.250000000000004" width="127.22571428571429" height="66" as="geometry" />
        </mxCell>
        <UserObject label="Control Subsystem" placeholders="1" name="Variable" id="qraEgwC79fjRJJOxNa_y-67">
          <mxCell style="text;html=1;strokeColor=none;fillColor=none;align=center;verticalAlign=middle;whiteSpace=wrap;overflow=hidden;fontSize=10;fontStyle=1" parent="qraEgwC79fjRJJOxNa_y-48" vertex="1">
            <mxGeometry x="-8.93760642857143" width="116.62357142857144" height="22" as="geometry" />
          </mxCell>
        </UserObject>
        <mxCell id="qraEgwC79fjRJJOxNa_y-33" style="edgeStyle=orthogonalEdgeStyle;rounded=0;orthogonalLoop=1;jettySize=auto;html=1;exitX=0;exitY=0.5;exitDx=0;exitDy=0;entryX=0.75;entryY=0;entryDx=0;entryDy=0;startArrow=classic;startFill=1;strokeColor=#00994D;" parent="1" source="qraEgwC79fjRJJOxNa_y-6" target="Lt4sIG0qt5cg9dwQDyGw-2" edge="1">
          <mxGeometry relative="1" as="geometry" />
        </mxCell>
        <mxCell id="Lt4sIG0qt5cg9dwQDyGw-6" value="Ceramic Pad" style="rounded=0;whiteSpace=wrap;html=1;" parent="1" vertex="1">
          <mxGeometry x="220" y="80" width="120" height="60" as="geometry" />
        </mxCell>
        <mxCell id="HiyRN5I2vMWk7KIYHkQ8-1" style="edgeStyle=orthogonalEdgeStyle;rounded=0;orthogonalLoop=1;jettySize=auto;html=1;exitX=0;exitY=0.5;exitDx=0;exitDy=0;entryX=1;entryY=0.5;entryDx=0;entryDy=0;strokeColor=#00994D;startArrow=classic;startFill=1;" parent="1" source="Lt4sIG0qt5cg9dwQDyGw-2" target="HviYj5k7WsrF9Fkv7oXZ-1" edge="1">
          <mxGeometry relative="1" as="geometry" />
        </mxCell>
        <mxCell id="HiyRN5I2vMWk7KIYHkQ8-4" style="edgeStyle=orthogonalEdgeStyle;rounded=0;orthogonalLoop=1;jettySize=auto;html=1;exitX=0;exitY=0.5;exitDx=0;exitDy=0;entryX=0.5;entryY=0;entryDx=0;entryDy=0;startArrow=classic;startFill=1;fillColor=#dae8fc;strokeColor=#6c8ebf;" parent="1" source="Lt4sIG0qt5cg9dwQDyGw-4" target="Lt4sIG0qt5cg9dwQDyGw-2" edge="1">
          <mxGeometry relative="1" as="geometry" />
        </mxCell>
        <mxCell id="jp2hRJiwT73V6jLLSagm-35" style="edgeStyle=orthogonalEdgeStyle;rounded=0;orthogonalLoop=1;jettySize=auto;html=1;exitX=0;exitY=0.5;exitDx=0;exitDy=0;entryX=1;entryY=0.75;entryDx=0;entryDy=0;dashed=1;dashPattern=8 8;fillColor=#fff2cc;strokeColor=#d6b656;" parent="1" source="qraEgwC79fjRJJOxNa_y-2" target="Lt4sIG0qt5cg9dwQDyGw-2" edge="1">
          <mxGeometry relative="1" as="geometry" />
        </mxCell>
        <mxCell id="jp2hRJiwT73V6jLLSagm-59" style="edgeStyle=orthogonalEdgeStyle;rounded=0;orthogonalLoop=1;jettySize=auto;html=1;exitX=0;exitY=0.75;exitDx=0;exitDy=0;entryX=0;entryY=0.75;entryDx=0;entryDy=0;dashed=1;dashPattern=8 8;fillColor=#fff2cc;strokeColor=#d6b656;" parent="1" source="qraEgwC79fjRJJOxNa_y-2" target="Lt4sIG0qt5cg9dwQDyGw-4" edge="1">
          <mxGeometry relative="1" as="geometry">
            <Array as="points">
              <mxPoint x="250" y="464" />
              <mxPoint x="250" y="247" />
            </Array>
          </mxGeometry>
        </mxCell>
        <mxCell id="Xdc3RvCqtwJiZPK4LWXQ-7" style="edgeStyle=orthogonalEdgeStyle;rounded=0;orthogonalLoop=1;jettySize=auto;html=1;exitX=0.25;exitY=0;exitDx=0;exitDy=0;entryX=0;entryY=0.75;entryDx=0;entryDy=0;dashed=1;dashPattern=8 8;fillColor=#fff2cc;strokeColor=#d6b656;" edge="1" parent="1" source="qraEgwC79fjRJJOxNa_y-2" target="qraEgwC79fjRJJOxNa_y-31">
          <mxGeometry relative="1" as="geometry">
            <Array as="points">
              <mxPoint x="515" y="430" />
              <mxPoint x="515" y="288" />
            </Array>
          </mxGeometry>
        </mxCell>
        <mxCell id="Xdc3RvCqtwJiZPK4LWXQ-33" style="edgeStyle=orthogonalEdgeStyle;rounded=0;orthogonalLoop=1;jettySize=auto;html=1;exitX=0;exitY=0.75;exitDx=0;exitDy=0;entryX=0.5;entryY=1;entryDx=0;entryDy=0;dashed=1;dashPattern=8 8;fillColor=#fff2cc;strokeColor=#d6b656;" edge="1" parent="1" source="qraEgwC79fjRJJOxNa_y-2" target="HviYj5k7WsrF9Fkv7oXZ-1">
          <mxGeometry relative="1" as="geometry">
            <Array as="points">
              <mxPoint x="450" y="464" />
              <mxPoint x="450" y="480" />
              <mxPoint x="132" y="480" />
            </Array>
          </mxGeometry>
        </mxCell>
        <mxCell id="jp2hRJiwT73V6jLLSagm-55" style="edgeStyle=orthogonalEdgeStyle;rounded=0;orthogonalLoop=1;jettySize=auto;html=1;exitX=0.25;exitY=1;exitDx=0;exitDy=0;entryX=0.75;entryY=1;entryDx=0;entryDy=0;startArrow=classic;startFill=1;endArrow=classic;endFill=1;fillColor=#dae8fc;strokeColor=#6c8ebf;" parent="1" source="qraEgwC79fjRJJOxNa_y-3" target="Lt4sIG0qt5cg9dwQDyGw-2" edge="1">
          <mxGeometry relative="1" as="geometry" />
        </mxCell>
        <mxCell id="jp2hRJiwT73V6jLLSagm-62" style="edgeStyle=orthogonalEdgeStyle;rounded=0;orthogonalLoop=1;jettySize=auto;html=1;exitX=0.5;exitY=0;exitDx=0;exitDy=0;entryX=0.5;entryY=1;entryDx=0;entryDy=0;fillColor=#6a00ff;strokeColor=#3700CC;dashed=1;dashPattern=8 8;" parent="1" source="qraEgwC79fjRJJOxNa_y-31" target="HiyRN5I2vMWk7KIYHkQ8-54" edge="1">
          <mxGeometry relative="1" as="geometry" />
        </mxCell>
        <mxCell id="Xdc3RvCqtwJiZPK4LWXQ-2" style="edgeStyle=orthogonalEdgeStyle;rounded=0;orthogonalLoop=1;jettySize=auto;html=1;exitX=0.5;exitY=1;exitDx=0;exitDy=0;entryX=0.5;entryY=0;entryDx=0;entryDy=0;" edge="1" parent="1" source="qraEgwC79fjRJJOxNa_y-31" target="Xdc3RvCqtwJiZPK4LWXQ-1">
          <mxGeometry relative="1" as="geometry" />
        </mxCell>
        <mxCell id="qraEgwC79fjRJJOxNa_y-31" value="Current Sensor" style="rounded=0;whiteSpace=wrap;html=1;" parent="1" vertex="1">
          <mxGeometry x="530.3199999999999" y="257.5" width="92.5" height="40" as="geometry" />
        </mxCell>
        <mxCell id="jp2hRJiwT73V6jLLSagm-43" style="edgeStyle=orthogonalEdgeStyle;rounded=0;orthogonalLoop=1;jettySize=auto;html=1;exitX=0;exitY=0.25;exitDx=0;exitDy=0;entryX=0.5;entryY=1;entryDx=0;entryDy=0;" parent="1" source="Lt4sIG0qt5cg9dwQDyGw-4" target="Lt4sIG0qt5cg9dwQDyGw-6" edge="1">
          <mxGeometry relative="1" as="geometry" />
        </mxCell>
        <mxCell id="Lt4sIG0qt5cg9dwQDyGw-4" value="Infrared Surface Temperature Sensor" style="rounded=0;whiteSpace=wrap;html=1;fontSize=9;" parent="1" vertex="1">
          <mxGeometry x="411.88" y="215" width="97.5" height="42.5" as="geometry" />
        </mxCell>
        <mxCell id="HiyRN5I2vMWk7KIYHkQ8-41" style="edgeStyle=orthogonalEdgeStyle;rounded=0;orthogonalLoop=1;jettySize=auto;html=1;exitX=0;exitY=0.25;exitDx=0;exitDy=0;entryX=0.5;entryY=1;entryDx=0;entryDy=0;" parent="1" source="qraEgwC79fjRJJOxNa_y-6" target="Lt4sIG0qt5cg9dwQDyGw-6" edge="1">
          <mxGeometry relative="1" as="geometry" />
        </mxCell>
        <mxCell id="qraEgwC79fjRJJOxNa_y-6" value="Capacitive Touch Wire" style="rounded=0;whiteSpace=wrap;html=1;" parent="1" vertex="1">
          <mxGeometry x="414.38" y="275" width="95" height="45" as="geometry" />
        </mxCell>
        <UserObject label="Sensor Subsystem" placeholders="1" name="Variable" id="qraEgwC79fjRJJOxNa_y-32">
          <mxCell style="text;html=1;strokeColor=none;fillColor=none;align=center;verticalAlign=middle;whiteSpace=wrap;overflow=hidden;fontSize=10;fontStyle=1" parent="1" vertex="1">
            <mxGeometry x="400" y="195" width="121.25" height="20" as="geometry" />
          </mxCell>
        </UserObject>
        <mxCell id="jp2hRJiwT73V6jLLSagm-41" style="edgeStyle=orthogonalEdgeStyle;rounded=0;orthogonalLoop=1;jettySize=auto;html=1;exitX=0.5;exitY=0;exitDx=0;exitDy=0;entryX=1;entryY=0.5;entryDx=0;entryDy=0;" parent="1" source="Lt4sIG0qt5cg9dwQDyGw-3" target="Lt4sIG0qt5cg9dwQDyGw-6" edge="1">
          <mxGeometry relative="1" as="geometry" />
        </mxCell>
        <mxCell id="Lt4sIG0qt5cg9dwQDyGw-3" value="Peltier Heating Component" style="rounded=0;whiteSpace=wrap;html=1;" parent="1" vertex="1">
          <mxGeometry x="686.12" y="158.57" width="96.18" height="38" as="geometry" />
        </mxCell>
        <UserObject label="Heating Subsystem" placeholders="1" name="Variable" id="Lt4sIG0qt5cg9dwQDyGw-121">
          <mxCell style="text;html=1;strokeColor=none;fillColor=none;align=center;verticalAlign=middle;whiteSpace=wrap;overflow=hidden;fontSize=10;fontStyle=1" parent="1" vertex="1">
            <mxGeometry x="609.02" y="130" width="137.61" height="20" as="geometry" />
          </mxCell>
        </UserObject>
        <mxCell id="jp2hRJiwT73V6jLLSagm-2" style="edgeStyle=orthogonalEdgeStyle;rounded=0;orthogonalLoop=1;jettySize=auto;html=1;exitX=0.5;exitY=0;exitDx=0;exitDy=0;entryX=1;entryY=0.5;entryDx=0;entryDy=0;" parent="1" source="HiyRN5I2vMWk7KIYHkQ8-54" target="Lt4sIG0qt5cg9dwQDyGw-6" edge="1">
          <mxGeometry relative="1" as="geometry" />
        </mxCell>
        <mxCell id="HiyRN5I2vMWk7KIYHkQ8-54" value="Resistive Coil" style="rounded=0;whiteSpace=wrap;html=1;" parent="1" vertex="1">
          <mxGeometry x="562.3900000000001" y="158.57" width="96.18" height="38" as="geometry" />
        </mxCell>
        <mxCell id="jp2hRJiwT73V6jLLSagm-1" style="edgeStyle=orthogonalEdgeStyle;rounded=0;orthogonalLoop=1;jettySize=auto;html=1;exitX=0.5;exitY=1;exitDx=0;exitDy=0;entryX=0.25;entryY=1;entryDx=0;entryDy=0;dashed=1;dashPattern=1 4;startArrow=classic;startFill=1;strokeWidth=2;" parent="1" source="Lt4sIG0qt5cg9dwQDyGw-19" target="Lt4sIG0qt5cg9dwQDyGw-2" edge="1">
          <mxGeometry relative="1" as="geometry">
            <Array as="points">
              <mxPoint x="68" y="490" />
              <mxPoint x="306" y="490" />
            </Array>
          </mxGeometry>
        </mxCell>
        <mxCell id="jp2hRJiwT73V6jLLSagm-12" style="edgeStyle=orthogonalEdgeStyle;rounded=0;orthogonalLoop=1;jettySize=auto;html=1;exitX=0.5;exitY=0;exitDx=0;exitDy=0;entryX=0.5;entryY=1;entryDx=0;entryDy=0;fillColor=#6a00ff;strokeColor=#3700CC;dashed=1;dashPattern=8 8;" parent="1" source="jp2hRJiwT73V6jLLSagm-10" target="Lt4sIG0qt5cg9dwQDyGw-3" edge="1">
          <mxGeometry relative="1" as="geometry" />
        </mxCell>
        <mxCell id="Xdc3RvCqtwJiZPK4LWXQ-4" style="edgeStyle=orthogonalEdgeStyle;rounded=0;orthogonalLoop=1;jettySize=auto;html=1;exitX=0.5;exitY=1;exitDx=0;exitDy=0;entryX=0.5;entryY=0;entryDx=0;entryDy=0;" edge="1" parent="1" source="jp2hRJiwT73V6jLLSagm-10" target="Xdc3RvCqtwJiZPK4LWXQ-3">
          <mxGeometry relative="1" as="geometry" />
        </mxCell>
        <mxCell id="jp2hRJiwT73V6jLLSagm-10" value="Current Sensor" style="rounded=0;whiteSpace=wrap;html=1;" parent="1" vertex="1">
          <mxGeometry x="634.02" y="257.5" width="92.5" height="40" as="geometry" />
        </mxCell>
        <mxCell id="jp2hRJiwT73V6jLLSagm-61" style="edgeStyle=orthogonalEdgeStyle;rounded=0;orthogonalLoop=1;jettySize=auto;html=1;exitX=1;exitY=0.25;exitDx=0;exitDy=0;entryX=0.25;entryY=0;entryDx=0;entryDy=0;fillColor=#f8cecc;strokeColor=#00994D;" parent="1" source="Lt4sIG0qt5cg9dwQDyGw-2" target="jp2hRJiwT73V6jLLSagm-46" edge="1">
          <mxGeometry relative="1" as="geometry" />
        </mxCell>
        <mxCell id="Xdc3RvCqtwJiZPK4LWXQ-5" style="edgeStyle=orthogonalEdgeStyle;rounded=0;orthogonalLoop=1;jettySize=auto;html=1;exitX=0.5;exitY=1;exitDx=0;exitDy=0;entryX=1;entryY=0.5;entryDx=0;entryDy=0;fillColor=#fff2cc;strokeColor=#0000CC;" edge="1" parent="1" source="Xdc3RvCqtwJiZPK4LWXQ-1" target="Lt4sIG0qt5cg9dwQDyGw-2">
          <mxGeometry relative="1" as="geometry" />
        </mxCell>
        <mxCell id="Xdc3RvCqtwJiZPK4LWXQ-1" value="Op-Amp" style="rounded=0;whiteSpace=wrap;html=1;" vertex="1" parent="1">
          <mxGeometry x="548.5799999999999" y="307.5" width="55.98" height="22.5" as="geometry" />
        </mxCell>
        <mxCell id="Xdc3RvCqtwJiZPK4LWXQ-6" style="edgeStyle=orthogonalEdgeStyle;rounded=0;orthogonalLoop=1;jettySize=auto;html=1;exitX=0.5;exitY=1;exitDx=0;exitDy=0;entryX=1;entryY=0.5;entryDx=0;entryDy=0;fillColor=#fff2cc;strokeColor=#0000CC;" edge="1" parent="1" source="Xdc3RvCqtwJiZPK4LWXQ-3" target="Lt4sIG0qt5cg9dwQDyGw-2">
          <mxGeometry relative="1" as="geometry" />
        </mxCell>
        <mxCell id="Xdc3RvCqtwJiZPK4LWXQ-3" value="Op-Amp" style="rounded=0;whiteSpace=wrap;html=1;" vertex="1" parent="1">
          <mxGeometry x="652.28" y="307.5" width="55.98" height="22.5" as="geometry" />
        </mxCell>
        <mxCell id="Xdc3RvCqtwJiZPK4LWXQ-9" style="edgeStyle=orthogonalEdgeStyle;rounded=0;orthogonalLoop=1;jettySize=auto;html=1;exitX=0.5;exitY=0;exitDx=0;exitDy=0;entryX=0.097;entryY=0.996;entryDx=0;entryDy=0;entryPerimeter=0;dashed=1;dashPattern=8 8;fillColor=#fff2cc;strokeColor=#d6b656;" edge="1" parent="1" source="qraEgwC79fjRJJOxNa_y-2" target="jp2hRJiwT73V6jLLSagm-10">
          <mxGeometry relative="1" as="geometry" />
        </mxCell>
        <mxCell id="Xdc3RvCqtwJiZPK4LWXQ-10" style="edgeStyle=orthogonalEdgeStyle;rounded=0;orthogonalLoop=1;jettySize=auto;html=1;exitX=0.5;exitY=0;exitDx=0;exitDy=0;entryX=0.915;entryY=0.996;entryDx=0;entryDy=0;entryPerimeter=0;fillColor=#6a00ff;strokeColor=#3700CC;dashed=1;dashPattern=8 8;" edge="1" parent="1" source="jp2hRJiwT73V6jLLSagm-46" target="qraEgwC79fjRJJOxNa_y-31">
          <mxGeometry relative="1" as="geometry" />
        </mxCell>
        <mxCell id="Xdc3RvCqtwJiZPK4LWXQ-11" style="edgeStyle=orthogonalEdgeStyle;rounded=0;orthogonalLoop=1;jettySize=auto;html=1;exitX=0.75;exitY=0;exitDx=0;exitDy=0;entryX=0.898;entryY=1.009;entryDx=0;entryDy=0;entryPerimeter=0;fillColor=#6a00ff;strokeColor=#3700CC;dashed=1;dashPattern=8 8;" edge="1" parent="1" source="jp2hRJiwT73V6jLLSagm-46" target="jp2hRJiwT73V6jLLSagm-10">
          <mxGeometry relative="1" as="geometry" />
        </mxCell>
        <mxCell id="Xdc3RvCqtwJiZPK4LWXQ-32" style="edgeStyle=orthogonalEdgeStyle;rounded=0;orthogonalLoop=1;jettySize=auto;html=1;exitX=1;exitY=0.25;exitDx=0;exitDy=0;entryX=0.397;entryY=-0.007;entryDx=0;entryDy=0;entryPerimeter=0;fillColor=#f8cecc;strokeColor=#00994D;" edge="1" parent="1" source="Lt4sIG0qt5cg9dwQDyGw-2" target="jp2hRJiwT73V6jLLSagm-46">
          <mxGeometry relative="1" as="geometry" />
        </mxCell>
        <mxCell id="Xdc3RvCqtwJiZPK4LWXQ-50" value="" style="group" vertex="1" connectable="0" parent="1">
          <mxGeometry x="50" y="170" width="153.37" height="100" as="geometry" />
        </mxCell>
        <mxCell id="Xdc3RvCqtwJiZPK4LWXQ-43" value="" style="rounded=0;whiteSpace=wrap;html=1;" vertex="1" parent="Xdc3RvCqtwJiZPK4LWXQ-50">
          <mxGeometry y="20" width="153.37" height="80" as="geometry" />
        </mxCell>
        <mxCell id="Xdc3RvCqtwJiZPK4LWXQ-34" value="Key" style="text;strokeColor=none;fillColor=none;html=1;fontSize=11;fontStyle=1;verticalAlign=middle;align=center;" vertex="1" parent="Xdc3RvCqtwJiZPK4LWXQ-50">
          <mxGeometry x="51.629999999999995" width="50" height="20" as="geometry" />
        </mxCell>
        <mxCell id="Xdc3RvCqtwJiZPK4LWXQ-38" value="Solid" style="text;html=1;align=center;verticalAlign=middle;whiteSpace=wrap;rounded=0;" vertex="1" parent="Xdc3RvCqtwJiZPK4LWXQ-50">
          <mxGeometry x="90" y="20" width="50" height="20" as="geometry" />
        </mxCell>
        <mxCell id="Xdc3RvCqtwJiZPK4LWXQ-45" value="" style="endArrow=none;html=1;rounded=0;entryX=0.5;entryY=0;entryDx=0;entryDy=0;exitX=0.5;exitY=1;exitDx=0;exitDy=0;" edge="1" parent="Xdc3RvCqtwJiZPK4LWXQ-50" source="Xdc3RvCqtwJiZPK4LWXQ-43" target="Xdc3RvCqtwJiZPK4LWXQ-43">
          <mxGeometry width="50" height="50" relative="1" as="geometry">
            <mxPoint x="80" y="120" as="sourcePoint" />
            <mxPoint x="70" y="40" as="targetPoint" />
          </mxGeometry>
        </mxCell>
        <mxCell id="Xdc3RvCqtwJiZPK4LWXQ-46" value="" style="group" vertex="1" connectable="0" parent="Xdc3RvCqtwJiZPK4LWXQ-50">
          <mxGeometry x="10" y="40" width="70" height="60" as="geometry" />
        </mxCell>
        <mxCell id="Xdc3RvCqtwJiZPK4LWXQ-13" value="" style="rounded=0;whiteSpace=wrap;html=1;fillColor=#fff2cc;strokeColor=#d6b656;" vertex="1" parent="Xdc3RvCqtwJiZPK4LWXQ-46">
          <mxGeometry y="5" width="26.09" height="10" as="geometry" />
        </mxCell>
        <mxCell id="Xdc3RvCqtwJiZPK4LWXQ-14" value="3.3V" style="text;strokeColor=none;fillColor=none;align=left;verticalAlign=middle;spacingLeft=4;spacingRight=4;overflow=hidden;points=[[0,0.5],[1,0.5]];portConstraint=eastwest;rotatable=0;whiteSpace=wrap;html=1;" vertex="1" parent="Xdc3RvCqtwJiZPK4LWXQ-46">
          <mxGeometry x="26.090000000000032" width="43.91" height="20" as="geometry" />
        </mxCell>
        <mxCell id="Xdc3RvCqtwJiZPK4LWXQ-15" value="5V" style="text;strokeColor=none;fillColor=none;align=left;verticalAlign=middle;spacingLeft=4;spacingRight=4;overflow=hidden;points=[[0,0.5],[1,0.5]];portConstraint=eastwest;rotatable=0;whiteSpace=wrap;html=1;" vertex="1" parent="Xdc3RvCqtwJiZPK4LWXQ-46">
          <mxGeometry x="26.090000000000032" y="20" width="43.91" height="20" as="geometry" />
        </mxCell>
        <mxCell id="Xdc3RvCqtwJiZPK4LWXQ-16" value="" style="rounded=0;whiteSpace=wrap;html=1;fillColor=#6a00ff;fontColor=#ffffff;strokeColor=#3700CC;" vertex="1" parent="Xdc3RvCqtwJiZPK4LWXQ-46">
          <mxGeometry y="25" width="26.09" height="10" as="geometry" />
        </mxCell>
        <mxCell id="Xdc3RvCqtwJiZPK4LWXQ-21" value="" style="rounded=0;whiteSpace=wrap;html=1;fillColor=#e51400;fontColor=#ffffff;strokeColor=#B20000;" vertex="1" parent="Xdc3RvCqtwJiZPK4LWXQ-46">
          <mxGeometry y="45" width="26.09" height="10" as="geometry" />
        </mxCell>
        <mxCell id="Xdc3RvCqtwJiZPK4LWXQ-22" value="12V" style="text;strokeColor=none;fillColor=none;align=left;verticalAlign=middle;spacingLeft=4;spacingRight=4;overflow=hidden;points=[[0,0.5],[1,0.5]];portConstraint=eastwest;rotatable=0;whiteSpace=wrap;html=1;" vertex="1" parent="Xdc3RvCqtwJiZPK4LWXQ-46">
          <mxGeometry x="26.090000000000032" y="40" width="43.91" height="20" as="geometry" />
        </mxCell>
        <mxCell id="Xdc3RvCqtwJiZPK4LWXQ-37" value="Dashed" style="text;html=1;align=center;verticalAlign=middle;whiteSpace=wrap;rounded=0;" vertex="1" parent="Xdc3RvCqtwJiZPK4LWXQ-50">
          <mxGeometry x="16.659999999999854" y="20" width="46.71" height="20" as="geometry" />
        </mxCell>
        <mxCell id="Xdc3RvCqtwJiZPK4LWXQ-48" value="" style="group" vertex="1" connectable="0" parent="Xdc3RvCqtwJiZPK4LWXQ-50">
          <mxGeometry x="83.37" y="40" width="70" height="60" as="geometry" />
        </mxCell>
        <mxCell id="Xdc3RvCqtwJiZPK4LWXQ-23" value="GPIO" style="text;strokeColor=none;fillColor=none;align=left;verticalAlign=middle;spacingLeft=4;spacingRight=4;overflow=hidden;points=[[0,0.5],[1,0.5]];portConstraint=eastwest;rotatable=0;whiteSpace=wrap;html=1;" vertex="1" parent="Xdc3RvCqtwJiZPK4LWXQ-48">
          <mxGeometry x="26.090000000000032" width="43.91" height="20" as="geometry" />
        </mxCell>
        <mxCell id="Xdc3RvCqtwJiZPK4LWXQ-24" value="" style="rounded=0;whiteSpace=wrap;html=1;fillColor=#00994D;" vertex="1" parent="Xdc3RvCqtwJiZPK4LWXQ-48">
          <mxGeometry y="5" width="26.09" height="10" as="geometry" />
        </mxCell>
        <mxCell id="Xdc3RvCqtwJiZPK4LWXQ-26" value="" style="rounded=0;whiteSpace=wrap;html=1;fillColor=#dae8fc;strokeColor=#6c8ebf;" vertex="1" parent="Xdc3RvCqtwJiZPK4LWXQ-48">
          <mxGeometry y="25" width="26.09" height="10" as="geometry" />
        </mxCell>
        <mxCell id="Xdc3RvCqtwJiZPK4LWXQ-27" value="I2C" style="text;strokeColor=none;fillColor=none;align=left;verticalAlign=middle;spacingLeft=4;spacingRight=4;overflow=hidden;points=[[0,0.5],[1,0.5]];portConstraint=eastwest;rotatable=0;whiteSpace=wrap;html=1;" vertex="1" parent="Xdc3RvCqtwJiZPK4LWXQ-48">
          <mxGeometry x="26.090000000000032" y="20" width="43.91" height="20" as="geometry" />
        </mxCell>
        <mxCell id="Xdc3RvCqtwJiZPK4LWXQ-28" value="ADC" style="text;strokeColor=none;fillColor=none;align=left;verticalAlign=middle;spacingLeft=4;spacingRight=4;overflow=hidden;points=[[0,0.5],[1,0.5]];portConstraint=eastwest;rotatable=0;whiteSpace=wrap;html=1;" vertex="1" parent="Xdc3RvCqtwJiZPK4LWXQ-48">
          <mxGeometry x="26.090000000000032" y="40" width="43.91" height="20" as="geometry" />
        </mxCell>
        <mxCell id="Xdc3RvCqtwJiZPK4LWXQ-29" value="" style="rounded=0;whiteSpace=wrap;html=1;fillColor=#0000FF;" vertex="1" parent="Xdc3RvCqtwJiZPK4LWXQ-48">
          <mxGeometry y="45" width="26.09" height="10" as="geometry" />
        </mxCell>
        <mxCell id="Xdc3RvCqtwJiZPK4LWXQ-49" value="" style="endArrow=none;dashed=1;html=1;dashPattern=1 3;strokeWidth=2;rounded=0;entryX=1;entryY=0.25;entryDx=0;entryDy=0;exitX=0;exitY=0.25;exitDx=0;exitDy=0;" edge="1" parent="Xdc3RvCqtwJiZPK4LWXQ-50" source="Xdc3RvCqtwJiZPK4LWXQ-43" target="Xdc3RvCqtwJiZPK4LWXQ-43">
          <mxGeometry width="50" height="50" relative="1" as="geometry">
            <mxPoint x="-6.6299999999999955" y="90" as="sourcePoint" />
            <mxPoint x="43.370000000000005" y="40" as="targetPoint" />
          </mxGeometry>
        </mxCell>
        <mxCell id="Xdc3RvCqtwJiZPK4LWXQ-54" value="1" style="text;html=1;align=center;verticalAlign=middle;whiteSpace=wrap;rounded=0;fontStyle=1" vertex="1" parent="1">
          <mxGeometry x="421.88" y="90" width="28.12" height="20" as="geometry" />
        </mxCell>
        <mxCell id="Xdc3RvCqtwJiZPK4LWXQ-55" value="2" style="text;html=1;align=center;verticalAlign=middle;whiteSpace=wrap;rounded=0;fontStyle=1" vertex="1" parent="1">
          <mxGeometry x="290" y="287.5" width="26.86" height="20" as="geometry" />
        </mxCell>
        <mxCell id="Xdc3RvCqtwJiZPK4LWXQ-57" value="3" style="text;html=1;align=center;verticalAlign=middle;whiteSpace=wrap;rounded=0;fontStyle=1" vertex="1" parent="1">
          <mxGeometry x="80" y="470" width="28.12" height="20" as="geometry" />
        </mxCell>
        <mxCell id="Xdc3RvCqtwJiZPK4LWXQ-58" value="" style="group" vertex="1" connectable="0" parent="1">
          <mxGeometry x="40" y="355" width="135" height="95" as="geometry" />
        </mxCell>
        <mxCell id="Lt4sIG0qt5cg9dwQDyGw-126" value="" style="rounded=0;whiteSpace=wrap;html=1;fillColor=#1ba1e2;fontColor=#ffffff;strokeColor=#006EAF;opacity=60;dashed=1;container=0;" parent="Xdc3RvCqtwJiZPK4LWXQ-58" vertex="1">
          <mxGeometry width="135" height="95" as="geometry" />
        </mxCell>
        <mxCell id="Lt4sIG0qt5cg9dwQDyGw-19" value="App" style="rounded=0;whiteSpace=wrap;html=1;container=0;" parent="Xdc3RvCqtwJiZPK4LWXQ-58" vertex="1">
          <mxGeometry x="7.5" y="25" width="40" height="65" as="geometry" />
        </mxCell>
        <UserObject label="Software Subsystem" placeholders="1" name="Variable" id="Lt4sIG0qt5cg9dwQDyGw-128">
          <mxCell style="text;html=1;strokeColor=none;fillColor=none;align=center;verticalAlign=middle;whiteSpace=wrap;overflow=hidden;fontSize=10;fontStyle=1;container=0;" parent="Xdc3RvCqtwJiZPK4LWXQ-58" vertex="1">
            <mxGeometry x="13.130000000000003" y="5" width="108.75" height="20" as="geometry" />
          </mxCell>
        </UserObject>
        <mxCell id="HviYj5k7WsrF9Fkv7oXZ-1" value="Pairing Button" style="rounded=0;whiteSpace=wrap;html=1;container=0;" parent="Xdc3RvCqtwJiZPK4LWXQ-58" vertex="1">
          <mxGeometry x="67.5" y="25" width="50" height="65" as="geometry" />
        </mxCell>
        <mxCell id="Xdc3RvCqtwJiZPK4LWXQ-60" value="&lt;div&gt;&lt;b&gt;Footnotes&lt;/b&gt;&lt;/div&gt;&lt;ol&gt;&lt;li&gt;Heat Exchange through contact&lt;/li&gt;&lt;li&gt;GPIO Touch Wire 4, connects to wire inlaid in pad&lt;/li&gt;&lt;li&gt;Bluetooth connection&lt;/li&gt;&lt;/ol&gt;" style="text;strokeColor=none;fillColor=none;html=1;whiteSpace=wrap;verticalAlign=middle;overflow=hidden;" vertex="1" parent="1">
          <mxGeometry x="40" y="510" width="280" height="100" as="geometry" />
        </mxCell>
        <mxCell id="Xdc3RvCqtwJiZPK4LWXQ-62" value="" style="group" vertex="1" connectable="0" parent="1">
          <mxGeometry x="470" y="460" width="290" height="140" as="geometry" />
        </mxCell>
        <mxCell id="qraEgwC79fjRJJOxNa_y-37" value="" style="rounded=0;whiteSpace=wrap;html=1;fillColor=#ffe6cc;strokeColor=#d79b00;dashed=1;" parent="Xdc3RvCqtwJiZPK4LWXQ-62" vertex="1">
          <mxGeometry width="290" height="140" as="geometry" />
        </mxCell>
        <mxCell id="Lt4sIG0qt5cg9dwQDyGw-8" value="120 VAC Wall Power Supply" style="rounded=0;whiteSpace=wrap;html=1;" parent="Xdc3RvCqtwJiZPK4LWXQ-62" vertex="1">
          <mxGeometry x="7.390000000000043" y="75" width="120" height="60" as="geometry" />
        </mxCell>
        <mxCell id="qraEgwC79fjRJJOxNa_y-2" value="3.3V 2A Regulator" style="rounded=0;whiteSpace=wrap;html=1;" parent="Xdc3RvCqtwJiZPK4LWXQ-62" vertex="1">
          <mxGeometry x="7.389999999999986" y="10" width="95" height="45" as="geometry" />
        </mxCell>
        <mxCell id="jp2hRJiwT73V6jLLSagm-48" style="edgeStyle=orthogonalEdgeStyle;rounded=0;orthogonalLoop=1;jettySize=auto;html=1;exitX=0.5;exitY=0;exitDx=0;exitDy=0;entryX=0.5;entryY=1;entryDx=0;entryDy=0;dashed=1;fillColor=#e51400;strokeColor=#B20000;" parent="Xdc3RvCqtwJiZPK4LWXQ-62" source="Lt4sIG0qt5cg9dwQDyGw-8" target="qraEgwC79fjRJJOxNa_y-2" edge="1">
          <mxGeometry relative="1" as="geometry" />
        </mxCell>
        <mxCell id="qraEgwC79fjRJJOxNa_y-3" value="15A Step-Down Converter (12-5.5V)" style="rounded=0;whiteSpace=wrap;html=1;" parent="Xdc3RvCqtwJiZPK4LWXQ-62" vertex="1">
          <mxGeometry x="149.01999999999998" y="77.5" width="117.5" height="55" as="geometry" />
        </mxCell>
        <mxCell id="jp2hRJiwT73V6jLLSagm-49" style="edgeStyle=orthogonalEdgeStyle;rounded=0;orthogonalLoop=1;jettySize=auto;html=1;exitX=1;exitY=0.5;exitDx=0;exitDy=0;entryX=0;entryY=0.5;entryDx=0;entryDy=0;dashed=1;fillColor=#e51400;strokeColor=#B20000;" parent="Xdc3RvCqtwJiZPK4LWXQ-62" source="Lt4sIG0qt5cg9dwQDyGw-8" target="qraEgwC79fjRJJOxNa_y-3" edge="1">
          <mxGeometry relative="1" as="geometry" />
        </mxCell>
        <mxCell id="jp2hRJiwT73V6jLLSagm-46" value="Dual N-Type MOSFET" style="rounded=0;whiteSpace=wrap;html=1;" parent="Xdc3RvCqtwJiZPK4LWXQ-62" vertex="1">
          <mxGeometry x="131.1199999999999" y="10" width="95" height="45" as="geometry" />
        </mxCell>
        <mxCell id="jp2hRJiwT73V6jLLSagm-50" style="edgeStyle=orthogonalEdgeStyle;rounded=0;orthogonalLoop=1;jettySize=auto;html=1;exitX=0.5;exitY=0;exitDx=0;exitDy=0;entryX=0.75;entryY=1;entryDx=0;entryDy=0;fillColor=#6a00ff;strokeColor=#3700CC;dashed=1;dashPattern=8 8;" parent="Xdc3RvCqtwJiZPK4LWXQ-62" source="qraEgwC79fjRJJOxNa_y-3" target="jp2hRJiwT73V6jLLSagm-46" edge="1">
          <mxGeometry relative="1" as="geometry" />
        </mxCell>
        <mxCell id="jp2hRJiwT73V6jLLSagm-54" style="edgeStyle=orthogonalEdgeStyle;rounded=0;orthogonalLoop=1;jettySize=auto;html=1;exitX=0.25;exitY=0;exitDx=0;exitDy=0;entryX=0.5;entryY=1;entryDx=0;entryDy=0;fillColor=#6a00ff;strokeColor=#3700CC;dashed=1;dashPattern=8 8;" parent="Xdc3RvCqtwJiZPK4LWXQ-62" source="qraEgwC79fjRJJOxNa_y-3" target="jp2hRJiwT73V6jLLSagm-46" edge="1">
          <mxGeometry relative="1" as="geometry" />
        </mxCell>
        <UserObject label="Power&lt;br&gt;Subsystem" placeholders="1" name="Variable" id="jp2hRJiwT73V6jLLSagm-56">
          <mxCell style="text;html=1;strokeColor=none;fillColor=none;align=center;verticalAlign=middle;whiteSpace=wrap;overflow=hidden;fontSize=10;fontStyle=1" parent="Xdc3RvCqtwJiZPK4LWXQ-62" vertex="1">
            <mxGeometry x="230" y="10" width="60" height="40" as="geometry" />
          </mxCell>
        </UserObject>
      </root>
    </mxGraphModel>
  </diagram>
</mxfile>
